<?xml version="1.0" encoding="UTF-8"?>
<svg width="25pt" height="25pt" version="1.1" viewBox="0 0 1200 1200" xmlns="http://www.w3.org/2000/svg">
 <g>
  <path d="m600 307.2c68.398 0 124.8-56.398 124.8-124.8v-6c0-68.398-56.402-124.8-124.8-124.8s-124.8 56.398-124.8 124.8v6c0 69.598 56.402 124.8 124.8 124.8zm-76.801-130.8c0-42 34.801-76.801 76.801-76.801s76.801 34.801 76.801 76.801v6c0 42-34.801 76.801-76.801 76.801s-76.801-34.801-76.801-76.801z"/>
  <path d="m394.8 468v268.8c0 31.199 16.801 58.801 43.199 73.199l10.801 6c12 6 19.199 18 19.199 31.199v217.2c0 46.801 37.199 84 84 84h96c46.801 0 84-37.199 84-84v-217.2c0-13.199 7.1992-25.199 19.199-31.199l10.801-6c26.398-14.398 43.199-43.199 43.199-73.199v-268.8c0-46.801-37.199-84-84-84h-242.4c-45.602 0-84 37.199-84 84zm48 0c0-20.398 15.602-36 36-36h242.4c20.398 0 36 15.602 36 36v268.8c0 13.199-7.1992 25.199-19.199 31.199l-10.801 6c-26.398 14.398-43.199 43.199-43.199 73.199v217.2c0 20.398-15.602 36-36 36h-96c-20.398 0-36-15.602-36-36v-217.2c0-31.199-16.801-58.801-43.199-73.199l-10.801-6c-12-6-19.199-18-19.199-31.199z"/>
  <path d="m901.2 79.199c-68.398 0-124.8 56.398-124.8 124.8v6c0 68.398 56.398 124.8 124.8 124.8 68.398 0 124.8-56.398 124.8-124.8v-6c0-69.602-55.199-124.8-124.8-124.8zm76.801 130.8c0 42-34.801 76.801-76.801 76.801s-76.801-34.801-76.801-76.801v-6c0-42 34.801-76.801 76.801-76.801s76.801 34.801 76.801 76.801z"/>
  <path d="m1080 745.2v-250.8c0-46.801-37.199-84-84-84h-115.2c-13.199 0-24 10.801-24 24 0 13.199 10.801 24 24 24h115.2c20.398 0 36 15.602 36 36v236.4l-60 33.602c-7.1992 4.8008-12 12-12 21.602v212.4c0 20.398-15.602 36-36 36h-103.2c-13.199 0-24 10.801-24 24 0 13.199 10.801 24 24 24h103.2c46.801 0 84-37.199 84-84v-199.2l60-33.602c7.1992-3.5977 12-11.996 12-20.398z"/>
  <path d="m298.8 79.199c-68.398 0-124.8 56.398-124.8 124.8v6c0 68.398 56.398 124.8 124.8 124.8 68.398 0 124.8-56.398 124.8-124.8v-6c-1.2031-69.602-56.402-124.8-124.8-124.8zm75.598 130.8c0 42-34.801 76.801-76.801 76.801s-76.801-34.801-76.801-76.801v-6c0-42 34.801-76.801 76.801-76.801s76.801 34.801 76.801 76.801z"/>
  <path d="m163.2 783.6 10.801 6c12 6 19.199 18 19.199 31.199v176.4c0 46.801 37.199 84 84 84h103.2c13.199 0 24-10.801 24-24s-10.801-24-24-24h-103.2c-20.398 0-36-15.602-36-36v-176.4c0-31.199-16.801-58.801-43.199-73.199l-10.801-6c-12-6-19.199-18-19.199-31.199v-216c0-20.398 15.602-36 36-36h115.2c13.199 0 24-10.801 24-24 0-13.199-10.801-24-24-24l-115.2-0.003906c-46.801 0-84 37.199-84 84v216c0 30 16.801 57.602 43.199 73.203z"/>
 </g>
</svg>
