<?xml version="1.0" encoding="UTF-8"?>
<svg width="1200pt" height="1200pt" version="1.1" viewBox="0 0 1200 1200" xmlns="http://www.w3.org/2000/svg">
 <g>
  <path d="m600 0c-330 0-600 270-600 600s270 600 600 600 600-270 600-600-270-600-600-600zm0 1050c-247.5 0-450-202.5-450-450s202.5-450 450-450 450 202.5 450 450-202.5 450-450 450z"/>
  <path d="m675 300c0 41.422-33.578 75-75 75s-75-33.578-75-75 33.578-75 75-75 75 33.578 75 75"/>
  <path d="m600 450c-45 0-75 30-75 75v375c0 45 30 75 75 75s75-30 75-75v-375c0-45-30-75-75-75z"/>
 </g>
</svg>
