<?xml version="1.0" encoding="UTF-8"?>
<svg width="1200pt" height="1200pt" version="1.1" viewBox="0 0 1200 1200" xmlns="http://www.w3.org/2000/svg">
 <path d="m874.8 523.2c-25.199 42-36 103.2-36 103.2s6-55.199-30-153.6c-36-98.398-68.398-132-87.602-204-26.398-98.398 30-192 30-192 0 0.003906-224.4 43.203-326.4 238.8-91.199 174-54 278.4-54 278.4s-38.398-36-57.602-85.199c-19.199-49.199-15.602-94.801-15.602-94.801s-159.6 176.4-82.801 398.4c54 156 154.8 259.2 276 300-57.602-33.602-97.199-92.398-99.602-163.2-3.6016-130.8 86.398-194.4 140.4-280.8 76.801-124.8 55.199-204 55.199-204s63.602 36 100.8 169.2c10.801 39.602 13.199 79.199 10.801 116.4-6 93.602-46.801 178.8-46.801 178.8s70.801-14.398 90-144c32.398 33.602 62.398 82.801 66 133.2 7.1992 90-45.602 171.6-124.8 206.4 138.01-32.395 235.21-148.79 270.01-234 43.199-106.8 31.199-202.8 24-284.4-9.6016-112.8 30-196.8 30-196.8s-75.602 21.602-132 114z"/>
</svg>
